<?xml version="1.0" encoding="utf-8"?>
<!-- Svg Vector Icons : http://www.onlinewebfonts.com/icon -->
<!DOCTYPE svg PUBLIC "-//W3C//DTD SVG 1.1//EN" "http://www.w3.org/Graphics/SVG/1.1/DTD/svg11.dtd">
<svg version="1.1" xmlns="http://www.w3.org/2000/svg" xmlns:xlink="http://www.w3.org/1999/xlink" x="0px" y="0px" viewBox="0 0 256 256" enable-background="new 0 0 256 256" xml:space="preserve">
<metadata> Svg Vector Icons : http://www.onlinewebfonts.com/icon </metadata>
<g><g><path fill="#000000" d="M128.1,10c32.5,0,62,13.1,83.4,34.5l0.4,0.5C233,66.3,246,95.7,246,127.9c0,12.7-2,25-5.8,36.5c-3.6,11-8.7,21.3-15.1,30.5v41.9c0,5-4,9.2-9,9.2h-0.3h-87.7c-32.6,0-62-13.3-83.4-34.7l0,0h-0.1C23.4,190,10,160.5,10,127.9c0-32.5,13.4-62,34.7-83.4h-0.1C66,23.1,95.5,10,128.1,10L128.1,10z M69.2,104.4L69.2,104.4h117.7c3,0,5.4-2.5,5.4-5.5s-2.4-5.4-5.4-5.4H69.2c-3,0-5.5,2.5-5.5,5.4S66.2,104.4,69.2,104.4L69.2,104.4z M69.2,133.4L69.2,133.4h117.7c3,0,5.4-2.5,5.4-5.5c0-3-2.4-5.3-5.4-5.3H69.2c-3,0-5.5,2.3-5.5,5.3C63.7,131,66.2,133.4,69.2,133.4L69.2,133.4z M69.2,162.4L69.2,162.4h117.7c3,0,5.4-2.5,5.4-5.4c0-3-2.4-5.4-5.4-5.4H69.2c-3,0-5.5,2.4-5.5,5.4C63.7,160,66.2,162.4,69.2,162.4L69.2,162.4z M198.7,57.4L198.7,57.4c-18.1-18.1-43.1-29.2-70.6-29.2c-27.6,0-52.5,11.1-70.5,29.2l0,0h-0.1c-18,18-29.1,42.9-29.1,70.5c0,27.6,11.1,52.5,29.3,70.6l0,0c18,18.1,42.9,29.3,70.5,29.3h78.8v-35.6h0.1c0-1.9,0.5-3.9,1.8-5.4c6-8.4,11-17.8,14.3-27.9c3.1-9.7,4.9-20.1,4.9-30.9c0-27.4-11.1-52.1-28.9-70.2L198.7,57.4L198.7,57.4z"/></g></g>
</svg>