<?xml version="1.0" encoding="utf-8"?>
<!-- Svg Vector Icons : http://www.onlinewebfonts.com/icon -->
<!DOCTYPE svg PUBLIC "-//W3C//DTD SVG 1.1//EN" "http://www.w3.org/Graphics/SVG/1.1/DTD/svg11.dtd">
<svg version="1.1" xmlns="http://www.w3.org/2000/svg" xmlns:xlink="http://www.w3.org/1999/xlink" x="0px" y="0px" viewBox="0 0 256 256" enable-background="new 0 0 256 256" xml:space="preserve">
<metadata> Svg Vector Icons : http://www.onlinewebfonts.com/icon </metadata>
<g><g><g><path fill="#000000" d="M105.9,20.9l-1.5,1.4V128v105.7l1.5,1.4c1.9,1.9,4.6,1.9,6.5,0l1.5-1.4V128V22.3l-1.5-1.4c-0.9-0.9-2.1-1.5-3.2-1.5C108,19.4,106.8,20,105.9,20.9z"/><path fill="#000000" d="M124.8,58.7l-1.5,1.4V128v67.9l1.5,1.4c1.9,1.9,4.6,1.9,6.5,0l1.5-1.4V128V60.1l-1.5-1.4c-0.9-0.9-2.1-1.5-3.2-1.5C126.9,57.2,125.6,57.7,124.8,58.7z"/><path fill="#000000" d="M68.1,68.1l-1.5,1.4V128v58.5l1.5,1.4c0.9,0.9,2.1,1.5,3.2,1.5c1.1,0,2.4-0.5,3.2-1.5l1.5-1.4V128V69.5l-1.5-1.4c-0.9-0.9-2.1-1.5-3.2-1.5C70.2,66.6,69,67.2,68.1,68.1z"/><path fill="#000000" d="M143.6,77.6l-1.5,1.4v49v49l1.5,1.4c1.9,1.9,4.6,1.9,6.5,0l1.5-1.4v-49V79l-1.5-1.4c-0.9-0.9-2.1-1.5-3.2-1.5S144.5,76.6,143.6,77.6z"/><path fill="#000000" d="M200.3,77.6l-1.5,1.4v44.3v44.3l1.5,1.4c1.9,1.9,4.6,1.9,6.5,0l1.5-1.4v-44.3V79l-1.5-1.4c-0.9-0.9-2.1-1.5-3.2-1.5C202.4,76.1,201.2,76.6,200.3,77.6z"/><path fill="#000000" d="M30.4,96.4l-1.5,1.4V128v30.1l1.5,1.4c1.9,1.9,4.6,1.9,6.5,0l1.5-1.4V128V97.9l-1.5-1.4C36,95.5,34.7,95,33.6,95S31.2,95.5,30.4,96.4z"/><path fill="#000000" d="M49.2,105.9l-1.5,1.4V128v20.7l1.5,1.4c0.9,0.9,2.1,1.5,3.2,1.5c1.1,0,2.4-0.5,3.2-1.5l1.5-1.4V128v-20.7l-1.5-1.4c-0.9-0.9-2.1-1.5-3.2-1.5C51.4,104.4,50.1,104.9,49.2,105.9z"/><path fill="#000000" d="M87,105.9l-1.5,1.4V128v20.7l1.5,1.4c0.9,0.9,2.1,1.5,3.2,1.5s2.4-0.5,3.2-1.5l1.5-1.4V128v-20.7l-1.5-1.4c-0.9-0.9-2.1-1.5-3.2-1.5C89.1,104.4,87.9,104.9,87,105.9z"/><path fill="#000000" d="M162.5,105.9l-1.5,1.4V128v20.7l1.5,1.4c0.9,0.9,2.1,1.5,3.2,1.5c1.1,0,2.4-0.5,3.2-1.5l1.5-1.4V128v-20.7l-1.5-1.4c-0.9-0.9-2.1-1.5-3.2-1.5S163.4,104.9,162.5,105.9z"/><path fill="#000000" d="M219.2,105.9l-1.5,1.4V128v20.7l1.5,1.4c0.9,0.9,2.1,1.5,3.2,1.5c1.1,0,2.4-0.5,3.2-1.5l1.5-1.4V128v-20.7l-1.5-1.4c-0.9-0.9-2.1-1.5-3.2-1.5C221.3,104.4,220,104.9,219.2,105.9z"/><path fill="#000000" d="M11.5,115.3C10,116.7,10,116.9,10,128c0,11.2,0,11.3,1.5,12.7c0.9,0.9,2.1,1.5,3.2,1.5s2.4-0.5,3.2-1.5c1.5-1.4,1.5-1.5,1.5-12.7c0-11.2,0-11.3-1.5-12.7c-0.9-0.9-2.1-1.5-3.2-1.5S12.4,114.4,11.5,115.3z"/><path fill="#000000" d="M181.4,115.3c-1.5,1.4-1.5,1.5-1.5,12.7c0,11.2,0,11.3,1.5,12.7c0.9,0.9,2.1,1.5,3.2,1.5s2.4-0.5,3.2-1.5c1.5-1.4,1.5-1.5,1.5-12.7c0-11.2,0-11.3-1.5-12.7c-0.9-0.9-2.1-1.5-3.2-1.5C183.5,113.8,182.3,114.4,181.4,115.3z"/><path fill="#000000" d="M238,115.3c-1.5,1.4-1.5,1.5-1.5,12.7c0,11.2,0,11.3,1.5,12.7c0.9,0.9,2.1,1.5,3.2,1.5s2.4-0.5,3.2-1.5c1.5-1.4,1.5-1.5,1.5-12.7c0-11.2,0-11.3-1.5-12.7c-0.9-0.9-2.1-1.5-3.2-1.5C240.2,113.8,238.9,114.4,238,115.3z"/></g></g></g>
</svg>